# xmcd
#
# Track frame offsets:
#	150
#	15040
#	25755
#	42682
#	55342
#	63427
#	70195
#	81452
#	96595
#	115292
#	128435
#	137860
#	152167
#	164970
#	184810
#	201692
#	209932
#
# Disc length: 3545 seconds
#
# Revision: 3
# Processed by: cddbd v1.4PL0 Copyright (c) Steve Scherf et al.
# Submitted via: CDmax 2.0
#
DISCID=0b0dd711
DTITLE=Light Crust Doughboys - God Bless Amarillo (and all the Cowboys, Too)
DYEAR=1998
DGENRE=Country
TTITLE0=Beautiful Texas
TTITLE1=Sugar Moon
TTITLE2=I'm So Lonesome I Could Cry
TTITLE3=Sky Ball Paint
TTITLE4=The Yellow Rose of Texas
TTITLE5=Texas In My Soul
TTITLE6=Smokey's Smoke
TTITLE7=Texas Women
TTITLE8=San Antonio Rose
TTITLE9=Silver Stars
TTITLE10=Red Wing Medley
TTITLE11=Happy Trails
TTITLE12=Send the Light (aka - Wildwood Flower)
TTITLE13=Sugar Blues
TTITLE14=Careless Hands
TTITLE15=Spaghetti Rag
TTITLE16=God Bless Amarillo Suite
EXTD=LABEL =Light Crust Doughboys Records\nID =DB-1012\nUPC =none\nCOPYRIG
EXTD=HT =1998
EXTT0=
EXTT1=
EXTT2=
EXTT3=
EXTT4=
EXTT5=
EXTT6=
EXTT7=
EXTT8=
EXTT9=
EXTT10=
EXTT11=
EXTT12=
EXTT13=
EXTT14=
EXTT15=
EXTT16=
PLAYORDER=
